# xmcd
#
# Track frame offsets: 
#        150
#        16575
#        40537
#        62362
#        76987
#        100312
#        113550
#        127050
#        142012
#        161812
#        176437
#        191175
#        210325
#
# Disc length: 3060 seconds
#
# Revision: 3
# Processed by: cddbd v1.5.2PL0 Copyright (c) Steve Scherf et al.
# Submitted via: ExactAudioCopy v1.1
#
DISCID=a40bf20d
DTITLE=Magic Dick and Jay Geils - Bluestime
DYEAR=1994
DGENRE=Blues
TTITLE0=I Got To Find My Baby
TTITLE1=Pontiac Blues
TTITLE2=Can't Hold Out Much Longer
TTITLE3=She's The No Sleepinest Woman
TTITLE4=The Stuff You Gotta Watch
TTITLE5=Nine Below Zero
TTITLE6=I Stay In The Mood
TTITLE7=Too Young To Die
TTITLE8=Little Girl
TTITLE9=Full Court Press
TTITLE10=(I'm The) Coolest Cat In This Car
TTITLE11=Iodine In My Coffee
TTITLE12=Roller Coaster - Crazy Legs - I Got To Go
EXTD=
EXTT0=
EXTT1=
EXTT2=
EXTT3=
EXTT4=
EXTT5=
EXTT6=
EXTT7=
EXTT8=
EXTT9=
EXTT10=
EXTT11=
EXTT12=
PLAYORDER=
